<svg width="74" height="13" viewBox="0 0 74 13" fill="none" xmlns="http://www.w3.org/2000/svg">
<g clip-path="url(#clip0_2_3)">
<path d="M9.16582 2.28836C10.0509 2.28836 10.7529 2.55947 11.272 3.10167C11.7997 3.64388 12.0634 4.39695 12.0634 5.36088V9.56944H9.89342V5.6578C9.89342 5.19305 9.77005 4.83588 9.52324 4.58629C9.28499 4.3281 8.95311 4.199 8.52758 4.199C8.10209 4.199 7.76596 4.3281 7.51917 4.58629C7.28089 4.83588 7.16175 5.19305 7.16175 5.6578V9.56944H4.99174V5.6578C4.99174 5.19305 4.86835 4.83588 4.62156 4.58629C4.38329 4.3281 4.0514 4.199 3.62591 4.199C3.20041 4.199 2.86428 4.3281 2.61749 4.58629C2.37922 4.83588 2.26008 5.19305 2.26008 5.6578V9.56944H0.077301V2.36582H2.26008V3.2695C2.48134 2.96827 2.77067 2.7316 3.12808 2.55947C3.4855 2.37873 3.88971 2.28836 4.34074 2.28836C4.87686 2.28836 5.35341 2.40455 5.77039 2.63692C6.19589 2.8693 6.52777 3.20065 6.76604 3.63097C7.01283 3.23508 7.34897 2.91233 7.77446 2.66274C8.19996 2.41315 8.66374 2.28836 9.16582 2.28836ZM20.8659 2.36582L16.3983 12.9905H14.0496L15.6834 9.32416L12.7858 2.36582H15.2239L16.8706 6.87131L18.5045 2.36582H20.8659Z" fill="#16A34A"/>
<path d="M24.8975 9.65981C24.2423 9.65981 23.6551 9.5522 23.1359 9.33707C22.6169 9.12194 22.1999 8.80347 21.885 8.38175C21.5786 7.96004 21.417 7.45225 21.3999 6.8584H23.7231C23.7572 7.19406 23.8721 7.45225 24.0678 7.63299C24.2635 7.80512 24.5188 7.89118 24.8337 7.89118C25.1571 7.89118 25.4123 7.81803 25.5995 7.67172C25.7868 7.5168 25.8804 7.30594 25.8804 7.03914C25.8804 6.81537 25.8038 6.63033 25.6506 6.48402C25.506 6.33771 25.323 6.21722 25.1017 6.12255C24.889 6.02787 24.5826 5.9203 24.1826 5.79981C23.604 5.61907 23.1317 5.43833 22.7658 5.2576C22.3999 5.07686 22.085 4.81006 21.8212 4.45719C21.5574 4.10433 21.4255 3.64388 21.4255 3.07585C21.4255 2.23242 21.7276 1.57402 22.3318 1.10067C22.936 0.618704 23.7231 0.377722 24.6932 0.377722C25.6804 0.377722 26.4761 0.618704 27.0803 1.10067C27.6845 1.57402 28.0079 2.23672 28.0504 3.08876H25.6889C25.6719 2.79615 25.5655 2.56807 25.3698 2.40455C25.1741 2.23242 24.923 2.14635 24.6166 2.14635C24.3529 2.14635 24.1402 2.21951 23.9784 2.36582C23.8168 2.50352 23.7359 2.70578 23.7359 2.97258C23.7359 3.26519 23.8721 3.49327 24.1444 3.65679C24.4167 3.82031 24.8422 3.99675 25.4208 4.18609C25.9995 4.38404 26.4675 4.57338 26.825 4.75412C27.1909 4.93485 27.5058 5.19736 27.7695 5.54161C28.0334 5.88587 28.1653 6.3291 28.1653 6.87131C28.1653 7.3877 28.0334 7.85676 27.7695 8.27847C27.5143 8.70019 27.1399 9.03581 26.6462 9.28543C26.1527 9.53505 25.5698 9.65981 24.8975 9.65981ZM29.0746 5.96763C29.0746 5.21887 29.2235 4.56478 29.5214 4.00535C29.8277 3.44593 30.249 3.01561 30.7851 2.71438C31.3297 2.41315 31.9509 2.26254 32.6487 2.26254C33.5423 2.26254 34.2869 2.49922 34.8826 2.97258C35.4868 3.44593 35.8825 4.11294 36.0697 4.97358H33.7465C33.5507 4.42277 33.1721 4.14736 32.6104 4.14736C32.2104 4.14736 31.8913 4.30658 31.6531 4.62502C31.4148 4.93485 31.2957 5.38239 31.2957 5.96763C31.2957 6.55288 31.4148 7.00472 31.6531 7.32315C31.8913 7.63299 32.2104 7.7879 32.6104 7.7879C33.1721 7.7879 33.5507 7.51249 33.7465 6.96168H36.0697C35.8825 7.80512 35.4868 8.46781 34.8826 8.94978C34.2783 9.43177 33.5338 9.67272 32.6487 9.67272C31.9509 9.67272 31.3297 9.52214 30.7851 9.22088C30.249 8.91965 29.8277 8.48933 29.5214 7.92991C29.2235 7.37049 29.0746 6.7164 29.0746 5.96763ZM41.6156 2.28836C42.4325 2.28836 43.0878 2.56377 43.5814 3.11458C44.0749 3.65679 44.3217 4.40556 44.3217 5.36088V9.56945H42.1517V5.6578C42.1517 5.17583 42.0283 4.80145 41.7815 4.53465C41.5347 4.26786 41.2028 4.13445 40.7859 4.13445C40.3689 4.13445 40.037 4.26786 39.7902 4.53465C39.5434 4.80145 39.42 5.17583 39.42 5.6578V9.56945H37.2373V0.0162501H39.42V3.33405C39.6413 3.01561 39.9434 2.76171 40.3263 2.57238C40.7093 2.38304 41.139 2.28836 41.6156 2.28836ZM52.5528 5.85145C52.5528 6.058 52.54 6.27316 52.5145 6.49693H47.5745C47.6086 6.94447 47.749 7.28873 47.9957 7.52971C48.251 7.76208 48.5617 7.87827 48.9276 7.87827C49.4723 7.87827 49.8509 7.6459 50.0636 7.18115H52.3868C52.2677 7.6545 52.0507 8.08052 51.7358 8.45921C51.4295 8.8379 51.0423 9.13485 50.5742 9.34998C50.1062 9.56511 49.5829 9.67272 49.0042 9.67272C48.3064 9.67272 47.6852 9.52214 47.1405 9.22088C46.5959 8.91965 46.1704 8.48933 45.864 7.92991C45.5577 7.37049 45.4045 6.7164 45.4045 5.96763C45.4045 5.21887 45.5535 4.56478 45.8513 4.00535C46.1576 3.44593 46.5831 3.01561 47.1277 2.71438C47.6724 2.41315 48.2979 2.26254 49.0042 2.26254C49.6935 2.26254 50.3062 2.40886 50.8423 2.70147C51.3784 2.99409 51.7954 3.41151 52.0932 3.95372C52.3996 4.49592 52.5528 5.1285 52.5528 5.85145ZM50.3189 5.27051C50.3189 4.89182 50.1913 4.5906 49.936 4.36683C49.6807 4.14306 49.3616 4.03117 48.9786 4.03117C48.6127 4.03117 48.3021 4.13876 48.0468 4.35392C47.8001 4.56908 47.6469 4.87461 47.5873 5.27051H50.3189ZM62.7929 2.28836C63.6778 2.28836 64.3799 2.55947 64.8991 3.10167C65.4266 3.64388 65.6905 4.39695 65.6905 5.36088V9.56945H63.5205V5.6578C63.5205 5.19305 63.397 4.83588 63.1503 4.58629C62.912 4.3281 62.5801 4.199 62.1546 4.199C61.7291 4.199 61.393 4.3281 61.1462 4.58629C60.9079 4.83588 60.7888 5.19305 60.7888 5.6578V9.56945H58.6188V5.6578C58.6188 5.19305 58.4953 4.83588 58.2486 4.58629C58.0103 4.3281 57.6784 4.199 57.253 4.199C56.8274 4.199 56.4913 4.3281 56.2446 4.58629C56.0062 4.83588 55.8871 5.19305 55.8871 5.6578V9.56945H53.7044V2.36582H55.8871V3.2695C56.1083 2.96827 56.3977 2.7316 56.7551 2.55947C57.1126 2.37873 57.5167 2.28836 57.9678 2.28836C58.5039 2.28836 58.9804 2.40455 59.3974 2.63692C59.8229 2.8693 60.1548 3.20065 60.3931 3.63097C60.6398 3.23508 60.976 2.91233 61.4015 2.66274C61.827 2.41315 62.2908 2.28836 62.7929 2.28836ZM73.9313 5.85145C73.9313 6.058 73.9185 6.27316 73.893 6.49693H68.953C68.9871 6.94447 69.1275 7.28873 69.3742 7.52971C69.6295 7.76208 69.9402 7.87827 70.3061 7.87827C70.8508 7.87827 71.2294 7.6459 71.4421 7.18115H73.7653C73.6462 7.6545 73.4292 8.08052 73.1143 8.45921C72.808 8.8379 72.4208 9.13485 71.9527 9.34998C71.4847 9.56511 70.9614 9.67272 70.3827 9.67272C69.6849 9.67272 69.0637 9.52214 68.519 9.22088C67.9744 8.91965 67.5489 8.48933 67.2425 7.92991C66.9362 7.37049 66.783 6.7164 66.783 5.96763C66.783 5.21887 66.932 4.56478 67.2298 4.00535C67.5361 3.44593 67.9616 3.01561 68.5062 2.71438C69.0509 2.41315 69.6764 2.26254 70.3827 2.26254C71.072 2.26254 71.6847 2.40886 72.2208 2.70147C72.7569 2.99409 73.1739 3.41151 73.4717 3.95372C73.7781 4.49592 73.9313 5.1285 73.9313 5.85145ZM71.6974 5.27051C71.6974 4.89182 71.5698 4.5906 71.3145 4.36683C71.0592 4.14306 70.7401 4.03117 70.3571 4.03117C69.9912 4.03117 69.6806 4.13876 69.4253 4.35392C69.1786 4.56908 69.0254 4.87461 68.9658 5.27051H71.6974Z" fill="#2F2B45"/>
</g>
<defs>
<clipPath id="clip0_2_3">
<rect width="74" height="13" fill="white"/>
</clipPath>
</defs>
</svg>
